<?xml version="1.0" encoding="UTF-8" standalone="no"?>
<svg
   xmlns:dc="http://purl.org/dc/elements/1.1/"
   xmlns:cc="http://creativecommons.org/ns#"
   xmlns:rdf="http://www.w3.org/1999/02/22-rdf-syntax-ns#"
   xmlns:svg="http://www.w3.org/2000/svg"
   xmlns="http://www.w3.org/2000/svg"
   viewBox="0 0 1563.1067 419.556"
   height="419.556"
   width="1563.1067"
   xml:space="preserve"
   id="svg2"
   version="1.1"><metadata
     id="metadata8"><rdf:RDF><cc:Work
         rdf:about=""><dc:format>image/svg+xml</dc:format><dc:type
           rdf:resource="http://purl.org/dc/dcmitype/StillImage" /></cc:Work></rdf:RDF></metadata><defs
     id="defs6"><clipPath
       id="clipPath18"
       clipPathUnits="userSpaceOnUse"><path
         id="path16"
         d="M 0,314.667 H 1172.333 V 0 H 0 Z" /></clipPath><clipPath
       id="clipPath50"
       clipPathUnits="userSpaceOnUse"><path
         id="path48"
         d="M 0,314.667 H 1172.333 V 0 H 0 Z" /></clipPath></defs><g
     transform="matrix(1.3333333,0,0,-1.3333333,0,419.556)"
     id="g10"><g
       id="g12"><g
         clip-path="url(#clipPath18)"
         id="g14"><g
           transform="translate(62.6153,268.562)"
           id="g20"><path
             id="path22"
             style="fill:#0d0d0d;fill-opacity:1;fill-rule:nonzero;stroke:none"
             d="m 0,0 c 27.508,1.426 60.834,0.328 88.471,0.424 23.649,0.082 72.416,3.53 90.552,-9.707 10.752,-7.85 17.976,-19.619 20.109,-32.756 2.992,-19.302 1.154,-60.897 1.505,-82.359 -0.727,-25.173 1.453,-50.922 -1.263,-75.943 -2.995,-27.577 -21.54,-41.519 -46.991,-45.357 l -0.286,-0.038 c -6.145,-0.811 -13.988,-0.917 -20.256,-0.82 -44.344,0.69 -89.563,-1.622 -133.753,1.033 -32.563,3.274 -47.469,25.927 -48.072,56.72 -0.721,36.789 0.509,74.137 -0.14,110.583 C -50.851,-37.342 -47.604,-5.718 0,0" /></g><g
           transform="translate(105.6626,213.351)"
           id="g24"><path
             id="path26"
             style="fill:#ffffff;fill-opacity:1;fill-rule:nonzero;stroke:none"
             d="m 0,0 28.971,-0.126 c 0.049,0 0.084,-0.046 0.073,-0.094 L -4.484,-135.162 c -0.008,-0.033 -0.038,-0.057 -0.073,-0.057 l -29.592,-0.044 c -0.049,0 -0.085,0.046 -0.073,0.094 L -0.073,-0.057 C -0.065,-0.023 -0.035,0 0,0" /></g><g
           transform="translate(153.9037,160.0027)"
           id="g28"><path
             id="path30"
             style="fill:#ffffff;fill-opacity:1;fill-rule:nonzero;stroke:none"
             d="m 0,0 c 9.618,0.175 19.742,-0.003 29.404,-0.025 0.051,0 0.089,-0.047 0.078,-0.097 -5.818,-26.468 -13.765,-55.132 -20.273,-81.7 -0.009,-0.036 -0.041,-0.06 -0.077,-0.06 -9.831,0.063 -19.661,0.042 -29.489,-0.065 -0.051,0 -0.09,0.046 -0.079,0.096 5.725,26.421 13.689,55.385 20.36,81.791 0.009,0.035 0.04,0.059 0.076,0.06" /></g><g
           transform="translate(209.6798,173.2077)"
           id="g32"><path
             id="path34"
             style="fill:#fae052;fill-opacity:1;fill-rule:nonzero;stroke:none"
             d="m 0,0 h -37.738 c -0.276,0 -0.499,0.224 -0.499,0.5 v 37.737 c 0,0.276 0.223,0.5 0.499,0.5 H 0 c 0.276,0 0.5,-0.224 0.5,-0.5 V 0.5 C 0.5,0.224 0.276,0 0,0" /></g><g
           transform="translate(170.5908,172.3565)"
           id="g36"><path
             id="path38"
             style="fill:#ffe780;fill-opacity:1;fill-rule:nonzero;stroke:none"
             d="m 0,0 2.372,2.372 v 35.696 h 35.696 l 2.372,2.372 c -0.412,0.413 -0.982,0.669 -1.611,0.669 H 1.611 c -1.257,0 -2.28,-1.023 -2.28,-2.28 V 1.612 C -0.669,0.983 -0.413,0.413 0,0" /></g><g
           transform="translate(211.0311,212.796)"
           id="g40"><path
             id="path42"
             style="fill:#d1b646;fill-opacity:1;fill-rule:nonzero;stroke:none"
             d="m 0,0 -2.372,-2.372 v -35.696 h -35.696 l -2.372,-2.372 c 0.412,-0.413 0.982,-0.669 1.611,-0.669 h 37.218 c 1.257,0 2.28,1.023 2.28,2.28 V -1.612 C 0.669,-0.983 0.413,-0.413 0,0" /></g></g></g><g
       id="g44"><g
         clip-path="url(#clipPath50)"
         id="g46"><g
           transform="translate(366.0913,76.0477)"
           id="g52"><path
             id="path54"
             style="fill:#000000;fill-opacity:1;fill-rule:nonzero;stroke:none"
             d="m 0,0 c -12.052,0 -22.325,2.079 -30.821,6.236 -8.497,4.159 -15.366,9.641 -20.608,16.451 -5.243,6.807 -9.101,14.159 -11.57,22.054 -2.471,7.892 -3.706,15.515 -3.706,22.867 v 3.977 c 0,8.073 1.266,16.089 3.797,24.043 2.531,7.954 6.417,15.185 11.659,21.692 5.243,6.508 12.05,11.75 20.428,15.727 8.374,3.977 18.286,5.966 29.737,5.966 11.93,0 22.234,-2.111 30.911,-6.327 8.677,-4.22 15.575,-10.095 20.698,-17.625 5.121,-7.534 8.163,-16.422 9.129,-26.665 H 37.781 c -0.966,6.749 -3.226,12.383 -6.779,16.903 -3.556,4.519 -8.075,7.923 -13.558,10.214 -5.485,2.288 -11.659,3.434 -18.528,3.434 -7.113,0 -13.409,-1.265 -18.891,-3.796 -5.485,-2.531 -10.033,-6.028 -13.649,-10.485 -3.615,-4.46 -6.357,-9.671 -8.225,-15.637 -1.869,-5.965 -2.801,-12.504 -2.801,-19.613 0,-6.751 0.932,-13.105 2.801,-19.071 1.868,-5.966 4.669,-11.24 8.407,-15.818 3.734,-4.581 8.405,-8.134 14.009,-10.666 5.604,-2.53 12.08,-3.796 19.433,-3.796 10.604,0 19.523,2.622 26.754,7.864 7.231,5.243 11.629,12.745 13.196,22.506 H 62.004 C 60.798,41.153 57.666,32.688 52.604,25.037 47.542,17.382 40.611,11.298 31.815,6.779 23.017,2.26 12.411,0 0,0" /></g><g
           transform="translate(482.688,94.4862)"
           id="g56"><path
             id="path58"
             style="fill:#000000;fill-opacity:1;fill-rule:nonzero;stroke:none"
             d="m 0,0 c 6.626,0 12.292,1.475 16.993,4.429 4.699,2.952 8.284,6.96 10.756,12.021 2.468,5.062 3.705,10.725 3.705,16.992 0,6.387 -1.266,12.113 -3.796,17.174 -2.531,5.062 -6.146,9.067 -10.846,12.021 -4.7,2.952 -10.304,4.429 -16.812,4.429 -6.508,0 -12.112,-1.477 -16.812,-4.429 -4.7,-2.954 -8.315,-6.959 -10.846,-12.021 -2.53,-5.061 -3.796,-10.787 -3.796,-17.174 0,-6.267 1.234,-11.93 3.706,-16.992 2.468,-5.061 6.056,-9.069 10.755,-12.021 C -12.292,1.475 -6.629,0 0,0 m 0,-18.438 c -8.559,0 -16.088,1.417 -22.596,4.248 -6.508,2.83 -11.993,6.598 -16.45,11.297 -4.46,4.701 -7.836,10.034 -10.123,15.999 -2.291,5.965 -3.435,12.14 -3.435,18.529 v 3.615 c 0,6.387 1.175,12.592 3.525,18.62 2.35,6.025 5.785,11.416 10.304,16.179 4.519,4.76 10.032,8.524 16.54,11.298 6.508,2.771 13.92,4.158 22.235,4.158 8.315,0 15.696,-1.387 22.145,-4.158 6.445,-2.774 11.959,-6.538 16.54,-11.298 4.579,-4.763 8.044,-10.154 10.394,-16.179 2.35,-6.028 3.525,-12.233 3.525,-18.62 v -3.615 c 0,-6.389 -1.146,-12.564 -3.435,-18.529 C 46.879,7.141 43.503,1.808 39.046,-2.893 34.586,-7.592 29.104,-11.36 22.596,-14.19 16.088,-17.021 8.556,-18.438 0,-18.438" /></g><g
           transform="translate(597.2954,94.3056)"
           id="g60"><path
             id="path62"
             style="fill:#000000;fill-opacity:1;fill-rule:nonzero;stroke:none"
             d="m 0,0 c 5.903,0 11.086,1.415 15.546,4.248 4.457,2.83 7.923,6.808 10.394,11.931 2.469,5.121 3.706,10.996 3.706,17.625 0,6.627 -1.237,12.473 -3.706,17.535 C 23.469,56.4 20.034,60.347 15.637,63.18 11.236,66.01 6.024,67.428 0,67.428 c -5.305,0 -10.245,-1.206 -14.823,-3.615 -4.582,-2.413 -8.257,-5.875 -11.028,-10.395 -2.773,-4.52 -4.157,-9.974 -4.157,-16.36 v -7.773 c 0,-6.146 1.415,-11.42 4.248,-15.817 2.83,-4.402 6.536,-7.745 11.117,-10.033 C -10.064,1.144 -5.183,0 0,0 m -50.435,-51.158 v 133.59 h 16.811 v -42.12 l -3.253,0.181 c 0.601,10.241 2.771,18.678 6.507,25.308 3.734,6.626 8.677,11.569 14.824,14.823 6.146,3.254 12.894,4.881 20.246,4.881 6.988,0 13.315,-1.297 18.981,-3.887 5.663,-2.593 10.544,-6.178 14.642,-10.756 4.096,-4.582 7.2,-9.883 9.31,-15.908 2.107,-6.027 3.164,-12.535 3.164,-19.523 v -3.435 c 0,-6.869 -1.085,-13.349 -3.254,-19.433 -2.17,-6.086 -5.305,-11.419 -9.4,-15.998 -4.099,-4.581 -8.98,-8.197 -14.643,-10.846 -5.666,-2.65 -11.993,-3.977 -18.981,-3.977 -7.112,0 -13.738,1.509 -19.885,4.52 -6.146,3.01 -11.207,7.832 -15.184,14.461 -3.977,6.627 -6.209,15.244 -6.689,25.85 l 7.954,-13.377 v -64.354 z" /></g><path
           id="path64"
           style="fill:#000000;fill-opacity:1;fill-rule:nonzero;stroke:none"
           d="M 682.981,98.644 H 703.95 V 81.47 H 682.981 Z M 652.974,41.159 v 18.619 h 16.088 c 3.734,0 6.928,0.452 9.581,1.357 2.649,0.903 4.818,2.47 6.507,4.699 1.687,2.231 3.074,5.215 4.158,8.948 l 28.381,101.955 h 20.427 L 707.385,69.721 c -1.929,-6.748 -4.61,-12.231 -8.044,-16.451 -3.435,-4.216 -7.774,-7.29 -13.016,-9.218 -5.242,-1.927 -11.541,-2.893 -18.89,-2.893 z m 24.765,40.312 -33.081,95.266 h 21.512 l 31.635,-95.266 z" /><path
           id="path66"
           style="fill:#000000;fill-opacity:1;fill-rule:nonzero;stroke:none"
           d="m 773.364,195.718 h 21.692 V 79.302 h -21.692 z m -39.046,15.547 h 99.966 v -19.162 h -99.966 z" /><g
           transform="translate(841.5127,79.3017)"
           id="g68"><path
             id="path70"
             style="fill:#000000;fill-opacity:1;fill-rule:nonzero;stroke:none"
             d="M 0,0 V 131.963 H 21.15 V 54.051 h -4.338 c 0,9.639 1.234,17.924 3.706,24.855 2.468,6.929 6.264,12.231 11.388,15.908 5.121,3.675 11.598,5.514 19.433,5.514 h 0.904 c 11.448,0 20.094,-3.858 25.941,-11.569 5.843,-7.714 8.767,-18.801 8.767,-33.262 V 0 h -21.15 v 58.569 c 0,6.989 -2.02,12.502 -6.056,16.541 -4.039,4.036 -9.25,6.056 -15.637,6.056 -6.869,0 -12.414,-2.291 -16.63,-6.869 C 23.258,69.716 21.15,63.69 21.15,56.22 V 0 Z" /></g><path
           id="path72"
           style="fill:#000000;fill-opacity:1;fill-rule:nonzero;stroke:none"
           d="m 949.975,176.737 h 21.15 V 79.301 h -21.15 z m 6.869,13.558 c -4.338,0 -7.564,1.143 -9.671,3.434 -2.111,2.288 -3.163,5.243 -3.163,8.858 0,3.494 1.052,6.418 3.163,8.767 2.107,2.351 5.333,3.526 9.671,3.526 4.457,0 7.742,-1.175 9.852,-3.526 2.108,-2.349 3.163,-5.273 3.163,-8.767 0,-3.615 -1.055,-6.57 -3.163,-8.858 -2.11,-2.291 -5.395,-3.434 -9.852,-3.434 m -21.15,-13.558 h 35.431 v -16.27 h -35.431 z" /><g
           transform="translate(1032.4043,76.0477)"
           id="g74"><path
             id="path76"
             style="fill:#000000;fill-opacity:1;fill-rule:nonzero;stroke:none"
             d="m 0,0 c -8.437,0 -15.789,1.446 -22.054,4.339 -6.267,2.891 -11.388,6.717 -15.366,11.478 -3.976,4.76 -6.959,10.123 -8.947,16.089 -1.989,5.965 -2.984,12.08 -2.984,18.348 v 3.434 c 0,6.387 0.995,12.565 2.984,18.53 1.988,5.966 4.971,11.326 8.947,16.089 3.978,4.758 9.008,8.555 15.095,11.388 6.084,2.83 13.165,4.248 21.24,4.248 10.485,0 19.222,-2.291 26.212,-6.869 6.988,-4.582 12.23,-10.515 15.727,-17.806 3.495,-7.293 5.243,-15.157 5.243,-23.59 v -8.496 h -86.409 v 14.28 h 72.127 l -5.784,-7.231 c 0,6.508 -1.025,12.14 -3.073,16.902 -2.051,4.76 -5.062,8.434 -9.039,11.027 -3.977,2.59 -8.979,3.887 -15.004,3.887 -6.268,0 -11.51,-1.446 -15.727,-4.339 -4.219,-2.892 -7.352,-6.869 -9.4,-11.931 -2.051,-5.061 -3.073,-11.026 -3.073,-17.896 0,-6.508 1.022,-12.323 3.073,-17.444 2.048,-5.124 5.242,-9.16 9.581,-12.112 4.339,-2.954 9.88,-4.429 16.631,-4.429 6.748,0 12.292,1.475 16.631,4.429 4.339,2.952 6.988,6.417 7.954,10.395 H 44.289 C 42.961,26.09 40.281,20.306 36.244,15.365 32.205,10.423 27.115,6.626 20.97,3.977 14.823,1.327 7.832,0 0,0" /></g><g
           transform="translate(1090.9736,79.3017)"
           id="g78"><path
             id="path80"
             style="fill:#000000;fill-opacity:1;fill-rule:nonzero;stroke:none"
             d="m 0,0 v 100.87 c 0,10.965 2.982,19.071 8.948,24.314 5.965,5.242 14.67,7.863 26.121,7.863 H 47.361 V 116.235 H 32.72 c -3.978,0 -7.082,-1.146 -9.311,-3.434 -2.23,-2.291 -3.344,-5.423 -3.344,-9.401 L 20.065,0 Z M -12.835,95.989 H 48.988 V 80.261 h -61.823 z" /></g></g></g></g></svg>