<?xml version="1.0" encoding="UTF-8"?>
<svg id="Layer_1" data-name="Layer 1" xmlns="http://www.w3.org/2000/svg" viewBox="0 0 1172.33 314.67">
  <defs>
    <style>
      .cls-1 {
        fill: #fff;
      }

      .cls-2 {
        fill: #d1b646;
      }

      .cls-3 {
        fill: #0d0d0d;
      }

      .cls-4 {
        fill: #fae052;
      }

      .cls-5 {
        fill: #ffe780;
      }
    </style>
  </defs>
  <path class="cls-3" d="M62.62,46.1c27.51-1.43,60.83-.33,88.47-.42,23.65-.08,72.42-3.53,90.55,9.71,10.75,7.85,17.98,19.62,20.11,32.76,2.99,19.3,1.15,60.9,1.5,82.36-.73,25.17,1.45,50.92-1.26,75.94-2.99,27.58-21.54,41.52-46.99,45.36l-.29.04c-6.14.81-13.99.92-20.26.82-44.34-.69-89.56,1.62-133.75-1.03-32.56-3.27-47.47-25.93-48.07-56.72-.72-36.79.51-74.14-.14-110.58-.73-40.88,2.52-72.5,50.12-78.22Z"/>
  <path class="cls-1" d="M105.66,101.32l28.97.13s.08.05.07.09l-33.53,134.94s-.04.06-.07.06l-29.59.04s-.09-.05-.07-.09l34.15-135.11s.04-.06.07-.06Z"/>
  <path class="cls-1" d="M153.9,154.66c9.62-.18,19.74,0,29.4.03.05,0,.09.05.08.1-5.82,26.47-13.76,55.13-20.27,81.7,0,.04-.04.06-.08.06-9.83-.06-19.66-.04-29.49.06-.05,0-.09-.05-.08-.1,5.73-26.42,13.69-55.38,20.36-81.79,0-.04.04-.06.08-.06Z"/>
  <g>
    <rect class="cls-4" x="171.44" y="102.72" width="38.74" height="38.74" rx=".5" ry=".5"/>
    <path class="cls-5" d="M170.59,142.31l2.37-2.37v-35.7h35.7l2.37-2.37c-.41-.41-.98-.67-1.61-.67h-37.22c-1.26,0-2.28,1.02-2.28,2.28v37.22c0,.63.26,1.2.67,1.61Z"/>
    <path class="cls-2" d="M211.03,101.87l-2.37,2.37v35.7h-35.7l-2.37,2.37c.41.41.98.67,1.61.67h37.22c1.26,0,2.28-1.02,2.28-2.28v-37.22c0-.63-.26-1.2-.67-1.61Z"/>
  </g>
  <g>
    <path class="cls-1" d="M366.09,238.62c-12.05,0-22.33-2.08-30.82-6.24-8.5-4.16-15.37-9.64-20.61-16.45-5.24-6.81-9.1-14.16-11.57-22.05-2.47-7.89-3.71-15.51-3.71-22.87v-3.98c0-8.07,1.27-16.09,3.8-24.04,2.53-7.95,6.42-15.18,11.66-21.69s12.05-11.75,20.43-15.73c8.37-3.98,18.29-5.97,29.74-5.97s22.23,2.11,30.91,6.33c8.68,4.22,15.57,10.09,20.7,17.62,5.12,7.53,8.16,16.42,9.13,26.66h-21.87c-.97-6.75-3.23-12.38-6.78-16.9-3.56-4.52-8.08-7.92-13.56-10.21-5.49-2.29-11.66-3.43-18.53-3.43s-13.41,1.27-18.89,3.79c-5.49,2.53-10.03,6.03-13.65,10.49-3.62,4.46-6.36,9.67-8.23,15.64-1.87,5.96-2.8,12.5-2.8,19.61s.93,13.11,2.8,19.07c1.87,5.97,4.67,11.24,8.41,15.82,3.73,4.58,8.41,8.13,14.01,10.67,5.6,2.53,12.08,3.79,19.43,3.79,10.6,0,19.52-2.62,26.75-7.86,7.23-5.24,11.63-12.74,13.2-22.51h22.05c-1.21,9.28-4.34,17.75-9.4,25.4-5.06,7.65-11.99,13.74-20.79,18.26-8.8,4.52-19.4,6.78-31.82,6.78Z"/>
    <path class="cls-1" d="M482.69,238.62c-8.56,0-16.09-1.42-22.6-4.25s-11.99-6.6-16.45-11.3c-4.46-4.7-7.84-10.03-10.12-16-2.29-5.96-3.44-12.14-3.44-18.53v-3.62c0-6.39,1.18-12.59,3.53-18.62,2.35-6.03,5.78-11.42,10.3-16.18,4.52-4.76,10.03-8.52,16.54-11.3,6.51-2.77,13.92-4.16,22.23-4.16s15.7,1.39,22.14,4.16c6.45,2.77,11.96,6.54,16.54,11.3,4.58,4.76,8.04,10.15,10.39,16.18,2.35,6.03,3.53,12.23,3.53,18.62v3.62c0,6.39-1.15,12.56-3.44,18.53-2.29,5.96-5.67,11.3-10.12,16-4.46,4.7-9.94,8.47-16.45,11.3s-14.04,4.25-22.6,4.25ZM482.69,220.18c6.63,0,12.29-1.47,16.99-4.43,4.7-2.95,8.28-6.96,10.76-12.02,2.47-5.06,3.71-10.72,3.71-16.99s-1.27-12.11-3.8-17.17c-2.53-5.06-6.15-9.07-10.85-12.02-4.7-2.95-10.3-4.43-16.81-4.43s-12.11,1.48-16.81,4.43c-4.7,2.96-8.32,6.96-10.85,12.02-2.53,5.06-3.8,10.79-3.8,17.17s1.23,11.93,3.71,16.99c2.47,5.06,6.06,9.07,10.76,12.02,4.7,2.95,10.36,4.43,16.99,4.43Z"/>
    <path class="cls-1" d="M546.86,271.52v-133.59h16.81v42.12l-3.25-.18c.6-10.24,2.77-18.68,6.51-25.31,3.73-6.63,8.68-11.57,14.82-14.82,6.15-3.25,12.89-4.88,20.25-4.88s13.31,1.3,18.98,3.89c5.66,2.59,10.54,6.18,14.64,10.76,4.1,4.58,7.2,9.88,9.31,15.91,2.11,6.03,3.16,12.54,3.16,19.52v3.44c0,6.87-1.08,13.35-3.25,19.43-2.17,6.09-5.3,11.42-9.4,16-4.1,4.58-8.98,8.2-14.64,10.85-5.67,2.65-11.99,3.98-18.98,3.98s-13.74-1.51-19.88-4.52c-6.15-3.01-11.21-7.83-15.18-14.46-3.98-6.63-6.21-15.24-6.69-25.85l7.95,13.38v64.36h-21.15ZM597.3,220.36c5.9,0,11.09-1.42,15.55-4.25,4.46-2.83,7.92-6.81,10.39-11.93,2.47-5.12,3.71-11,3.71-17.62s-1.24-12.47-3.71-17.54c-2.47-5.06-5.91-9.01-10.3-11.84-4.4-2.83-9.61-4.25-15.64-4.25-5.3,0-10.24,1.21-14.82,3.62-4.58,2.41-8.26,5.88-11.03,10.39-2.77,4.52-4.16,9.97-4.16,16.36v7.77c0,6.15,1.42,11.42,4.25,15.82,2.83,4.4,6.54,7.75,11.12,10.03,4.58,2.29,9.46,3.44,14.64,3.44Z"/>
    <path class="cls-1" d="M677.74,233.2l-33.08-95.27h21.51l31.63,95.27h-20.07ZM652.97,273.51v-18.62h16.09c3.73,0,6.93-.45,9.58-1.36,2.65-.9,4.82-2.47,6.51-4.7,1.69-2.23,3.07-5.21,4.16-8.95l28.38-101.96h20.43l-30.73,107.02c-1.93,6.75-4.61,12.23-8.04,16.45-3.43,4.22-7.77,7.29-13.02,9.22-5.24,1.93-11.54,2.89-18.89,2.89h-14.46ZM682.98,233.2v-17.17h20.97v17.17h-20.97Z"/>
    <path class="cls-1" d="M734.32,122.56v-19.16h99.97v19.16h-99.97ZM773.36,235.37v-116.42h21.69v116.42h-21.69Z"/>
    <path class="cls-1" d="M841.51,235.37V103.4h21.15v77.91h-4.34c0-9.64,1.23-17.92,3.71-24.86,2.47-6.93,6.26-12.23,11.39-15.91,5.12-3.68,11.6-5.51,19.43-5.51h.9c11.45,0,20.09,3.86,25.94,11.57,5.84,7.71,8.77,18.8,8.77,33.26v55.5h-21.15v-58.57c0-6.99-2.02-12.5-6.06-16.54-4.04-4.04-9.25-6.05-15.64-6.05-6.87,0-12.41,2.29-16.63,6.87-4.22,4.58-6.33,10.61-6.33,18.08v56.22h-21.15Z"/>
    <path class="cls-1" d="M935.69,154.2v-16.27h35.43v16.27h-35.43ZM956.84,124.37c-4.34,0-7.56-1.14-9.67-3.43-2.11-2.29-3.16-5.24-3.16-8.86s1.05-6.42,3.16-8.77c2.11-2.35,5.33-3.53,9.67-3.53s7.74,1.17,9.85,3.53c2.11,2.35,3.16,5.27,3.16,8.77s-1.06,6.57-3.16,8.86c-2.11,2.29-5.4,3.43-9.85,3.43ZM949.97,235.37v-97.44h21.15v97.44h-21.15Z"/>
    <path class="cls-1" d="M1032.4,238.62c-8.44,0-15.79-1.45-22.05-4.34-6.27-2.89-11.39-6.72-15.37-11.48-3.98-4.76-6.96-10.12-8.95-16.09-1.99-5.96-2.98-12.08-2.98-18.35v-3.44c0-6.39.99-12.56,2.98-18.53,1.99-5.96,4.97-11.33,8.95-16.09,3.98-4.76,9.01-8.56,15.09-11.39,6.08-2.83,13.17-4.25,21.24-4.25,10.49,0,19.22,2.29,26.21,6.87,6.99,4.58,12.23,10.52,15.73,17.81,3.49,7.29,5.24,15.16,5.24,23.59v8.5h-86.41v-14.28h72.13l-5.78,7.23c0-6.51-1.03-12.14-3.07-16.9-2.05-4.76-5.06-8.44-9.04-11.03-3.98-2.59-8.98-3.89-15-3.89s-11.51,1.45-15.73,4.34c-4.22,2.89-7.35,6.87-9.4,11.93-2.05,5.06-3.07,11.03-3.07,17.9,0,6.51,1.02,12.32,3.07,17.44,2.05,5.12,5.24,9.16,9.58,12.11,4.34,2.96,9.88,4.43,16.63,4.43s12.29-1.47,16.63-4.43c4.34-2.95,6.99-6.42,7.95-10.39h19.7c-1.33,6.63-4.01,12.41-8.04,17.36-4.04,4.94-9.13,8.74-15.27,11.39-6.15,2.65-13.14,3.98-20.97,3.98Z"/>
    <path class="cls-1" d="M1078.14,155.1v-15.73h61.82v15.73h-61.82ZM1090.97,235.37v-100.87c0-10.96,2.98-19.07,8.95-24.31,5.96-5.24,14.67-7.86,26.12-7.86h12.29v16.81h-14.64c-3.98,0-7.08,1.15-9.31,3.44-2.23,2.29-3.34,5.42-3.34,9.4v103.4h-20.07Z"/>
  </g>
</svg>